#!OML:ASF F:\VICON\USERDATA\INSTALL\rory3\rory3.ASF
:FULLY-SPECIFIED
:DEGREES
490
root 0.500889 17.0028 16.8606 8.16546 -1.7605 4.20234
lowerback -6.89137 -1.1314 -3.54092
upperback -3.45227 -1.29006 -0.356566
thorax 0.368378 -0.609673 1.5276
lowerneck -13.157 -1.68931 -8.55819
upperneck 22.9604 -2.22136 7.51413
head 9.58521 -0.957059 3.80277
rclavicle 3.56135e-014 3.06128e-014
rhumerus -39.623 4.87992 -89.6501
rradius 36.6576
rwrist -0.027007
rhand -26.096 -48.5039
rfingers 7.12502
rthumb 0.453008 -78.4832
lclavicle 3.56135e-014 3.06128e-014
lhumerus -25.5556 -16.1951 89.8377
lradius 37.2349
lwrist 10.4084
lhand -32.6912 -29.666
lfingers 7.12502
lthumb -5.91612 0.231439
rfemur -44.655 3.94038 14.7005
rtibia 49.0914
rfoot -11.121 -21.3726
rtoes -3.6015
lfemur -13.0329 -7.81233 -30.5003
ltibia 29.1622
lfoot -21.825 3.71463
ltoes 3.08917
491
root 0.496835 17.0064 16.9661 8.28039 -1.48509 4.25939
lowerback -6.84541 -1.24632 -3.65152
upperback -3.47594 -1.43882 -0.34653
thorax 0.328819 -0.681766 1.59015
lowerneck -12.8275 -1.65983 -8.5026
upperneck 22.6175 -2.18865 7.44935
head 9.39812 -0.947258 3.76401
rclavicle 2.07295e-014 1.92821e-014
rhumerus -39.5952 4.78086 -89.5266
rradius 36.8565
rwrist 0.402089
rhand -25.2029 -49.6134
rfingers 7.12502
rthumb 1.31564 -79.5891
lclavicle 2.07295e-014 1.92821e-014
lhumerus -25.3513 -16.468 90.0033
lradius 37.786
lwrist 10.4616
lhand -33.1922 -28.2741
lfingers 7.12502
lthumb -6.39977 1.60923
rfemur -44.7338 3.91503 14.4902
rtibia 46.4732
rfoot -10.9833 -21.0142
rtoes -3.47421
lfemur -12.3557 -7.96978 -30.5584
ltibia 28.4596
lfoot -21.7876 3.70734
ltoes 2.88292
492
root 0.483361 17.0038 17.0676 8.33924 -1.3961 4.27854
lowerback -6.64392 -1.29649 -3.88532
upperback -3.57944 -1.50441 -0.276434
thorax 0.120735 -0.706328 1.79399
lowerneck -12.4597 -1.64223 -8.58049
upperneck 22.3927 -2.17545 7.48684
head 9.25015 -0.948583 3.78517
rclavicle 4.38196e-014 1.82882e-014
rhumerus -39.7106 4.72347 -89.3868
rradius 37.0326
rwrist 0.745353
rhand -24.697 -50.7256
rfingers 7.12502
rthumb 1.80422 -80.6977
lclavicle 4.38196e-014 1.82882e-014
lhumerus -25.1799 -16.7802 90.2301
lradius 38.1581
lwrist 10.2852
lhand -33.4436 -27.2977
lfingers 7.12502
lthumb -6.64249 2.57811
rfemur -44.8388 4.1875 14.3084
rtibia 43.916
rfoot -10.708 -20.8815
rtoes -5.46217
lfemur -11.5656 -8.01435 -30.556
ltibia 27.559
lfoot -21.63 3.832
ltoes 2.45556
493
root 0.476406 17.0129 17.191 8.28972 -1.20288 4.54008
lowerback -6.5761 -1.4167 -4.2649
upperback -3.53909 -1.64485 -0.292636
thorax 0.141614 -0.772778 1.98099
lowerneck -12.3375 -1.61635 -8.56024
upperneck 22.1508 -2.12732 7.4215
head 9.13823 -0.931601 3.75778
rclavicle 6.28035e-015 -9.14409e-015
rhumerus -39.6405 4.78737 -89.3089
rradius 36.9141
rwrist 0.943775
rhand -25.2221 -50.3073
rfingers 7.12502
rthumb 1.29708 -80.2831
lclavicle 6.28035e-015 -9.14409e-015
lhumerus -24.8046 -16.8101 90.3083
lradius 38.4535
lwrist 9.75073
lhand -33.3576 -28.929
lfingers 7.12502
lthumb -6.55943 0.949402
rfemur -44.6395 4.0998 13.9506
rtibia 41.4048
rfoot -10.5124 -20.3931
rtoes -6.44173
lfemur -10.5976 -8.01434 -30.8615
ltibia 26.7473
lfoot -21.6189 3.7084
ltoes 2.19413
494
root 0.475496 17.0245 17.3182 8.23392 -0.935356 4.77058
lowerback -6.49131 -1.51415 -4.45043
upperback -3.41527 -1.76423 -0.374749
thorax 0.232636 -0.834413 1.9921
lowerneck -12.6993 -1.62899 -8.41461
upperneck 22.1407 -2.12726 7.33626
head 9.20071 -0.921854 3.70384
rclavicle -8.65956e-015 1.19271e-015
rhumerus -39.411 4.70452 -89.2428
rradius 36.6764
rwrist 1.38562
rhand -25.7059 -49.529
rfingers 7.12502
rthumb 0.82982 -79.5072
lclavicle -8.65956e-015 1.19271e-015
lhumerus -24.3461 -16.8472 90.3398
lradius 38.8181
lwrist 9.33413
lhand -33.0253 -28.8013
lfingers 7.12502
lthumb -6.2386 1.08679
rfemur -44.3158 3.76604 13.7038
rtibia 38.9123
rfoot -9.92911 -19.3058
rtoes -6.09365
lfemur -9.64071 -8.00093 -31.1493
ltibia 26.0356
lfoot -21.5586 3.44717
ltoes 1.86978
495
root 0.463406 17.0293 17.4265 8.36587 -0.727524 4.5696
lowerback -6.45363 -1.56129 -4.31464
upperback -3.35965 -1.83531 -0.323417
thorax 0.272051 -0.872709 1.96409
lowerneck -12.988 -1.67062 -8.38455
upperneck 22.1668 -2.18046 7.3791
head 9.26902 -0.934768 3.70912
rclavicle 1.12313e-014 -5.96354e-016
rhumerus -39.3198 4.48794 -89.1595
rradius 36.9571
rwrist 1.65407
rhand -24.8179 -50.7279
rfingers 7.12502
rthumb 1.68746 -80.701
lclavicle 1.12313e-014 -5.96354e-016
lhumerus -23.8934 -17.1109 90.4267
lradius 39.1063
lwrist 9.38747
lhand -32.897 -28.8304
lfingers 7.12502
lthumb -6.11474 1.06135
rfemur -44.2785 3.82649 13.8526
rtibia 36.463
rfoot -9.23023 -18.6734
rtoes -7.15846
lfemur -9.01281 -8.07685 -30.8728
ltibia 25.3066
lfoot -21.3723 3.29996
ltoes 1.33726
496
root 0.448436 17.0268 17.5308 8.65936 -0.451243 4.46574
lowerback -6.66177 -1.64634 -4.32365
upperback -3.31529 -1.93587 -0.279242
thorax 0.441585 -0.926461 2.00112
lowerneck -12.782 -1.72286 -8.47714
upperneck 21.7931 -2.2561 7.4799
head 9.10967 -0.968302 3.74175
rclavicle -1.11164e-014 -1.35174e-014
rhumerus -39.2452 4.33833 -89.1216
rradius 37.0511
rwrist 1.6521
rhand -25.3034 -49.9305
rfingers 7.12502
rthumb 1.21857 -79.9068
lclavicle -1.11164e-014 -1.35174e-014
lhumerus -23.4013 -17.4078 90.5341
lradius 39.2963
lwrist 9.50305
lhand -33.1332 -28.7406
lfingers 7.12502
lthumb -6.34279 1.14441
rfemur -44.4069 3.88687 13.8636
rtibia 34.141
rfoot -8.40564 -18.3825
rtoes -9.73228
lfemur -8.63373 -8.19462 -30.6477
ltibia 24.6422
lfoot -21.2969 3.02988
ltoes 1.26671
497
root 0.440659 17.0263 17.6621 8.53464 -0.379839 4.48597
lowerback -6.71813 -1.62175 -4.38091
upperback -3.11786 -1.8908 -0.306737
thorax 0.674537 -0.910983 2.0035
lowerneck -12.7685 -1.77875 -8.56276
upperneck 21.5612 -2.33501 7.60794
head 9.03664 -0.997515 3.78647
rclavicle 8.6813e-015 -7.95139e-015
rhumerus -39.0537 4.34543 -89.1511
rradius 36.8482
rwrist 1.06942
rhand -26.6627 -48.2327
rfingers 7.12502
rthumb -0.0942707 -78.2124
lclavicle 8.6813e-015 -7.95139e-015
lhumerus -23.0442 -17.7849 90.7024
lradius 39.5635
lwrist 9.48103
lhand -33.516 -28.6162
lfingers 7.12502
lthumb -6.71235 1.2574
rfemur -43.958 3.95159 13.8242
rtibia 32.0026
rfoot -8.05813 -17.5347
rtoes -11.5322
lfemur -7.65281 -7.97817 -30.6898
ltibia 24.0054
lfoot -21.5241 2.77496
ltoes 1.3794
498
root 0.432494 17.0266 17.7922 8.5764 -0.209077 4.61924
lowerback -6.84461 -1.67234 -4.55259
upperback -3.0252 -1.93727 -0.345031
thorax 0.847183 -0.937834 2.05153
lowerneck -12.9084 -1.81204 -8.6593
upperneck 21.5298 -2.38675 7.78035
head 9.05948 -1.00881 3.85703
rclavicle -1.52427e-014 -1.47101e-014
rhumerus -38.8702 4.37237 -89.1311
rradius 36.5451
rwrist 0.896816
rhand -26.6362 -47.8503
rfingers 7.12502
rthumb -0.0687167 -77.83
lclavicle -1.52427e-014 -1.47101e-014
lhumerus -22.7365 -18.1428 90.8343
lradius 39.7182
lwrist 9.447
lhand -33.4181 -29.0786
lfingers 7.12502
lthumb -6.61783 0.797952
rfemur -43.7555 3.93443 13.588
rtibia 30.1137
rfoot -8.33163 -16.696
rtoes -10.1326
lfemur -6.76929 -7.77091 -30.8075
ltibia 23.2538
lfoot -21.6904 2.50654
ltoes 0.726247
499
root 0.425436 17.0254 17.9109 8.68143 0.130306 4.93271
lowerback -6.83356 -1.82519 -4.87284
upperback -3.05703 -2.12099 -0.414901
thorax 0.828447 -1.02663 2.14472
lowerneck -12.7497 -1.79827 -8.6948
upperneck 21.3982 -2.3747 7.81683
head 8.98408 -1.00445 3.87359
rclavicle -9.00743e-016 5.96354e-015
rhumerus -38.8609 4.28555 -89.0289
rradius 36.3672
rwrist 1.18568
rhand -26.754 -48.8267
rfingers 7.12502
rthumb -0.182497 -78.8064
lclavicle -9.00743e-016 5.96354e-015
lhumerus -22.4371 -18.2527 90.9387
lradius 39.6423
lwrist 9.28795
lhand -33.0775 -29.4312
lfingers 7.12502
lthumb -6.28908 0.455451
rfemur -43.6894 3.84692 13.0613
rtibia 28.3934
rfoot -8.24865 -16.1972
rtoes -9.79404
lfemur -5.93286 -7.74609 -31.0823
ltibia 22.4001
lfoot -21.5739 2.21357
ltoes -0.167652
500
root 0.41621 17.0252 18.0281 8.73695 0.395148 5.22386
lowerback -6.63299 -1.93327 -5.19964
upperback -3.15252 -2.25955 -0.477605
thorax 0.637173 -1.08762 2.25972
lowerneck -12.6602 -1.71209 -8.65728
upperneck 21.3676 -2.26348 7.79752
head 8.94554 -0.952583 3.87217
rclavicle 2.11659e-014 2.22639e-014
rhumerus -39.038 4.17793 -88.9613
rradius 36.3479
rwrist 1.37901
rhand -26.5347 -49.191
rfingers 7.12502
rthumb 0.0293425 -79.1707
lclavicle 2.11659e-014 2.22639e-014
lhumerus -22.3399 -18.2926 91.1189
lradius 39.7036
lwrist 9.1365
lhand -33.0443 -29.2337
lfingers 7.12502
lthumb -6.25693 0.653881
rfemur -43.4988 4.01415 12.4585
rtibia 26.6776
rfoot -7.89206 -15.9996
rtoes -9.90354
lfemur -5.20095 -7.77871 -31.3232
ltibia 21.7277
lfoot -21.3055 1.79218
ltoes -0.0506079
501
root 0.401437 17.0326 18.1489 8.7725 0.591001 5.18925
lowerback -6.52739 -1.99126 -5.28314
upperback -3.19402 -2.34023 -0.449596
thorax 0.54597 -1.12412 2.33327
lowerneck -12.5944 -1.64789 -8.71958
upperneck 21.3609 -2.19964 7.95014
head 8.92639 -0.91299 3.94311
rclavicle 2.58265e-015 5.96354e-016
rhumerus -39.1047 4.08778 -88.9248
rradius 36.4327
rwrist 0.816387
rhand -25.7551 -50.6981
rfingers 7.12502
rthumb 0.782237 -80.6764
lclavicle 2.58265e-015 5.96354e-016
lhumerus -22.3132 -18.3151 91.3192
lradius 39.7524
lwrist 8.98996
lhand -33.0803 -30.1705
lfingers 7.12502
lthumb -6.29173 -0.283893
rfemur -43.1825 4.62922 12.0387
rtibia 24.9573
rfoot -7.59787 -16.108
rtoes -9.82704
lfemur -4.63595 -7.80012 -31.1891
ltibia 21.2566
lfoot -21.0567 1.31124
ltoes 0.593717
502
root 0.380134 17.0398 18.2685 8.83682 0.724786 4.6604
lowerback -6.6271 -1.97503 -4.92987
upperback -3.13095 -2.33268 -0.298921
thorax 0.65979 -1.12632 2.28731
lowerneck -12.3341 -1.70564 -8.83939
upperneck 21.1281 -2.30672 8.13533
head 8.8112 -0.957623 4.00942
rclavicle 2.35575e-014 -1.37161e-014
rhumerus -38.9887 4.02046 -88.9345
rradius 36.2028
rwrist 0.284018
rhand -25.6278 -50.8263
rfingers 7.12502
rthumb 0.905211 -80.8041
lclavicle 2.35575e-014 -1.37161e-014
lhumerus -22.0679 -18.4741 91.4713
lradius 39.6455
lwrist 8.9491
lhand -33.0256 -31.3446
lfingers 7.12502
lthumb -6.23895 -1.45651
rfemur -42.8997 5.71772 11.9912
rtibia 23.3373
rfoot -7.11569 -16.4835
rtoes -10.1565
lfemur -4.15793 -7.4897 -30.4892
ltibia 20.88
lfoot -20.9901 0.888617
ltoes 0.489603
